<?xml version="1.0" encoding="utf-8"?>
<svg xmlns="http://www.w3.org/2000/svg" style="display:none;">
  <symbol id="icon-dashboard" viewBox="0 0 24 24" fill="currentColor">
    <path d="M3 13h8V3H3v10zm0 8h8v-6H3v6zM13 21h8V11h-8v10zM13 3v6h8V3h-8z"/>
  </symbol>

  <symbol id="icon-directory" viewBox="0 0 24 24" fill="currentColor">
    <path d="M3 4h6l2 3h10v13H3V4zm2 2v9h14V9H11.5L9.5 6H5z"/>
  </symbol>

  <symbol id="icon-availability" viewBox="0 0 24 24" fill="currentColor">
    <path d="M12 2C6.5 2 2 6.5 2 12s4.5 10 10 10 10-4.5 10-10S17.5 2 12 2zm1 15h-2v-6h2v6zm0-8h-2V7h2v2z"/>
  </symbol>

  <symbol id="icon-fleet" viewBox="0 0 24 24" fill="currentColor">
    <path d="M3 13v-2a2 2 0 0 1 2-2h11V7H6a4 4 0 0 0-4 4v2h1zm18 0h-1v3a1 1 0 0 1-1 1h-1a1 1 0 0 1-1-1v-3H7v3a1 1 0 0 1-1 1H5a1 1 0 0 1-1-1v-3H3v-2a3 3 0 0 1 3-3h13a3 3 0 0 1 3 3v2z"/>
  </symbol>

  <symbol id="icon-return" viewBox="0 0 24 24" fill="currentColor">
    <path d="M12 5V1L7 6l5 5V7c3.86 0 7 3.14 7 7 0 .55-.05 1.09-.15 1.61l1.46 1.46C20.88 16.41 21 15.71 21 15c0-4.97-4.03-9-9-9zM6.15 6.41L4.69 4.95C3.12 6.74 2 9.24 2 12c0 4.97 4.03 9 9 9v4l5-5-5-5v4c-3.86 0-7-3.14-7-7 0-1.77.59-3.4 1.58-4.74z"/>
  </symbol>

  <symbol id="icon-loads" viewBox="0 0 24 24" fill="currentColor">
    <path d="M3 7v13h18V7H3zm2 2h14v9H5V9zM7 1h10v4H7V1z"/>
  </symbol>

  <symbol id="icon-quotes" viewBox="0 0 24 24" fill="currentColor">
    <path d="M6 2h9l5 5v13a1 1 0 0 1-1 1H6a1 1 0 0 1-1-1V3a1 1 0 0 1 1-1zm2 6h8v2H8V8zm0 4h8v2H8v-2z"/>
  </symbol>

  <symbol id="icon-diary" viewBox="0 0 24 24" fill="currentColor">
    <path d="M7 10h10v2H7v-2zm0 4h10v2H7v-2zM17 3h-1V1h-2v2H10V1H8v2H7a2 2 0 0 0-2 2v14a2 2 0 0 0 2 2h10a2 2 0 0 0 2-2V5a2 2 0 0 0-2-2z"/>
  </symbol>

  <symbol id="icon-freight-vision" viewBox="0 0 24 24" fill="currentColor">
    <path d="M12 5c-7 0-11 7-11 7s4 7 11 7 11-7 11-7-4-7-11-7zm0 11a4 4 0 1 1 0-8 4 4 0 0 1 0 8zm0-6a2 2 0 1 0 .001 4.001A2 2 0 0 0 12 10z"/>
  </symbol>

  <symbol id="icon-drivers" viewBox="0 0 24 24" fill="currentColor">
    <path d="M5 20h14v-2a4 4 0 0 0-4-4H9a4 4 0 0 0-4 4v2zm7-9a4 4 0 1 0 0-8 4 4 0 0 0 0 8z"/>
  </symbol>
</svg>
